<?xml version="1.0" encoding="UTF-8" standalone="no"?>
<!DOCTYPE svg PUBLIC "-//W3C//DTD SVG 1.1//EN" "http://www.w3.org/Graphics/SVG/1.1/DTD/svg11.dtd">
<svg width="100%" height="100%" viewBox="0 0 1370 836" version="1.1" xmlns="http://www.w3.org/2000/svg" xmlns:xlink="http://www.w3.org/1999/xlink" xml:space="preserve" xmlns:serif="http://www.serif.com/" style="fill-rule:evenodd;clip-rule:evenodd;stroke-linecap:round;stroke-linejoin:round;stroke-miterlimit:1.5;">
    <g transform="matrix(0.609205,0.168976,-0.147794,0.532838,137.469,309.994)">
        <path d="M185.288,74.431L268.079,240.013L102.497,240.013L185.288,74.431Z" style="fill:none;stroke:white;stroke-width:23.54px;"/>
    </g>
    <g transform="matrix(-0.529165,0.345931,-0.302566,-0.462831,1356.51,145.732)">
        <path d="M185.288,74.431L268.079,240.013L102.497,240.013L185.288,74.431Z" style="fill:none;stroke:white;stroke-width:23.54px;"/>
    </g>
    <g transform="matrix(-0.529165,0.345931,-0.302566,-0.462831,680.161,483.368)">
        <path d="M185.288,74.431L268.079,240.013L102.497,240.013L185.288,74.431Z" style="fill:none;stroke:white;stroke-width:23.54px;"/>
    </g>
    <g transform="matrix(1,0,0,1,78.7458,-16.1806)">
        <path d="M1147.5,476.79L1195.77,525.062L1147.5,573.334L1099.23,525.062L1147.5,476.79Z" style="fill:none;stroke:white;stroke-width:13.98px;"/>
    </g>
    <g transform="matrix(1.1285,0.992407,-0.992407,1.1285,219.904,-1034.2)">
        <path d="M1147.5,476.79L1195.77,525.062L1147.5,573.334L1099.23,525.062L1147.5,476.79Z" style="fill:none;stroke:white;stroke-width:9.3px;"/>
    </g>
    <g transform="matrix(0.511614,0.859216,-0.859216,0.511614,27.78,-586.046)">
        <path d="M1147.5,476.79L1195.77,525.062L1147.5,573.334L1099.23,525.062L1147.5,476.79Z" style="fill:none;stroke:white;stroke-width:13.98px;"/>
    </g>
    <g transform="matrix(1.61279,0.727816,-0.287072,0.636133,-1195.36,-1042.7)">
        <path d="M1147.5,476.79L1195.77,525.062L1147.5,573.334L1099.23,525.062L1147.5,476.79Z" style="fill:none;stroke:white;stroke-width:10.4px;"/>
    </g>
    <g transform="matrix(1.6514,-0.535285,0.305041,0.941077,-1320.79,392.758)">
        <path d="M1147.5,476.79L1195.77,525.062L1147.5,573.334L1099.23,525.062L1147.5,476.79Z" style="fill:none;stroke:white;stroke-width:9.9px;"/>
    </g>
    <g transform="matrix(1,0,0,1,-9.70839,-577.11)">
        <circle cx="241.65" cy="641.832" r="33.44" style="fill:none;stroke:white;stroke-width:13.98px;"/>
    </g>
    <g transform="matrix(1,0,0,1,816.583,-399.123)">
        <circle cx="241.65" cy="641.832" r="33.44" style="fill:none;stroke:white;stroke-width:13.98px;"/>
    </g>
    <g transform="matrix(1.51613,0,0,1.51613,54.3431,-270.861)">
        <circle cx="241.65" cy="641.832" r="33.44" style="fill:none;stroke:white;stroke-width:9.22px;"/>
    </g>
    <g transform="matrix(0.928411,-0.371555,0.371555,0.928411,-459.192,873.462)">
        <path d="M1144.53,184.459L1223.28,312.826L1065.79,312.826L1144.53,184.459Z" style="fill:none;stroke:white;stroke-width:13.98px;"/>
    </g>
    <g transform="matrix(1,0,0,1,47.4632,-431.484)">
        <circle cx="764.825" cy="511.308" r="61.486" style="fill:none;stroke:white;stroke-width:13.98px;"/>
    </g>
    <g transform="matrix(1.15351,0,0,1.15351,45.7476,-141.325)">
        <circle cx="764.825" cy="511.308" r="61.486" style="fill:none;stroke:white;stroke-width:12.12px;"/>
    </g>
    <g transform="matrix(0.765825,-0.643049,0.643049,0.765825,-650.423,565.54)">
        <path d="M720.597,181.223L817.681,181.223" style="fill:none;stroke:white;stroke-width:13.98px;"/>
        <g transform="matrix(1,0,0,1,0,50)">
            <path d="M720.597,181.223L817.681,181.223" style="fill:none;stroke:white;stroke-width:13.98px;"/>
        </g>
    </g>
    <g transform="matrix(0.962238,-0.272211,0.272211,0.962238,431.36,313.161)">
        <path d="M720.597,181.223L817.681,181.223" style="fill:none;stroke:white;stroke-width:13.98px;"/>
        <g transform="matrix(1,0,0,1,0,50)">
            <path d="M720.597,181.223L817.681,181.223" style="fill:none;stroke:white;stroke-width:13.98px;"/>
        </g>
    </g>
    <g transform="matrix(1.13036,0.714374,-0.714374,1.13036,500.302,-52.9616)">
        <path d="M720.597,181.223L817.681,181.223" style="fill:none;stroke:white;stroke-width:10.46px;"/>
        <g transform="matrix(1,0,0,1,1.16324,44.8415)">
            <path d="M720.597,181.223L817.681,181.223" style="fill:none;stroke:white;stroke-width:10.46px;"/>
        </g>
    </g>
</svg>
