<?xml version="1.0" encoding="UTF-8" standalone="no"?>
<!DOCTYPE svg PUBLIC "-//W3C//DTD SVG 1.1//EN" "http://www.w3.org/Graphics/SVG/1.1/DTD/svg11.dtd">
<svg width="100%" height="100%" viewBox="0 0 512 512" version="1.1" xmlns="http://www.w3.org/2000/svg"
    xmlns:xlink="http://www.w3.org/1999/xlink" xml:space="preserve" xmlns:serif="http://www.serif.com/"
    style="fill-rule:evenodd;clip-rule:evenodd;stroke-linejoin:round;stroke-miterlimit:2;">
    <g>
        <path id="bg"
            d="M54.037,388.286C83.37,415.527 166.537,476.388 325.37,446.286C475.936,417.751 500.775,311.686 504.704,274.952C507.966,244.452 521.37,154.292 398.037,84.566C273.223,14.002 190.102,102.232 176.037,117.506C162.434,132.277 129.641,163.681 114.037,173.506C96.037,184.839 48.704,201.506 35.37,212.839C22.037,224.172 3.37,244.172 5.37,290.839C7.37,337.506 27.432,363.579 54.037,388.286Z"
            style="fill:#fff;" />
        <g>
            <path d="M248.542,364.756L248.542,406.089L281.542,406.089L281.542,362.589L248.542,364.756Z"
                style="fill:#97a8db;" />
            <path d="M263.542,364.756L263.542,406.089L296.542,406.089L296.542,362.589L263.542,364.756Z"
                style="fill:#aebde3;" />
        </g>
        <g>
            <path
                d="M207.075,422.706L322.675,422.506L322.675,409.706C322.732,406.22 321.261,404.16 318.275,403.906L212.475,403.506C209.114,403.506 207.175,405.644 207.175,409.006L207.075,422.706Z"
                style="fill:#97a8db;" />
            <path
                d="M223.075,422.706L338.675,422.506L338.675,409.706C338.732,406.22 337.261,404.16 334.275,403.906L228.475,403.506C225.114,403.506 223.175,405.644 223.175,409.006L223.075,422.706Z"
                style="fill:#bdc9eb;" />
        </g>
        <g>
            <path
                d="M109.397,137.017C109.414,133.898 110.685,130.918 112.925,128.747C115.164,126.577 118.183,125.399 121.301,125.48C169.243,126.728 348.538,131.393 393.733,132.569C399.517,132.719 404.127,137.451 404.127,143.237C404.127,181.702 404.127,315.752 404.127,355.387C404.127,361.568 399.19,366.617 393.011,366.756C346.877,367.795 170.604,371.765 121.116,372.88C117.705,372.957 114.408,371.651 111.974,369.259C109.541,366.867 108.179,363.592 108.197,360.18C108.429,316.971 109.174,178.488 109.397,137.017Z"
                style="fill:#97a8db;" />
            <path
                d="M131.897,136.517C131.914,133.398 133.185,130.418 135.425,128.247C137.664,126.077 140.683,124.899 143.801,124.98C191.743,126.228 371.038,130.893 416.233,132.069C422.017,132.219 426.627,136.951 426.627,142.737C426.627,181.202 426.627,315.252 426.627,354.887C426.627,361.068 421.69,366.117 415.511,366.256C369.377,367.295 193.104,371.265 143.616,372.38C140.205,372.457 136.908,371.151 134.474,368.759C132.041,366.367 130.679,363.092 130.697,359.68C130.929,316.471 131.674,177.988 131.897,136.517Z"
                style="fill:#bdc9eb;" />
            <circle cx="162.285" cy="353.081" r="4.525" style="fill:#97a8db;" />
            <path d="M151.46,142.256L148.96,340.256L410.46,342.756L411.96,148.256L151.46,142.256Z" style="fill:#fff;" />
        </g>
        <g opacity="0.37">
            <path
                d="M169.499,219.674C169.517,219.437 169.716,219.254 169.954,219.257C174.189,219.304 208.862,219.69 213.383,219.74C213.509,219.742 213.628,219.795 213.713,219.888C213.797,219.981 213.839,220.105 213.829,220.23C213.768,220.957 213.654,222.32 213.597,223.005C213.578,223.24 213.381,223.42 213.146,223.42C208.941,223.408 174.235,223.314 169.71,223.302C169.584,223.302 169.464,223.249 169.379,223.157C169.294,223.065 169.251,222.941 169.261,222.816C169.321,222.016 169.441,220.432 169.499,219.674Z"
                style="fill:#bdc9eb;" />
            <path
                d="M171.735,165.374C171.742,164.906 171.939,164.461 172.28,164.14C172.622,163.82 173.078,163.652 173.546,163.674C185.478,164.242 253.606,167.486 265.191,168.038C266.124,168.082 266.853,168.86 266.837,169.794C266.73,176.082 266.355,198.231 266.247,204.577C266.231,205.525 265.455,206.283 264.507,206.277C252.803,206.197 184.666,205.733 172.859,205.653C172.398,205.65 171.957,205.463 171.635,205.133C171.313,204.804 171.135,204.359 171.143,203.898C171.247,197.081 171.629,172.264 171.735,165.374Z"
                style="fill:#bdc9eb;" />
            <path
                d="M169.393,232.319C169.404,232.075 169.607,231.884 169.852,231.888C173.048,231.944 192.72,232.286 196.013,232.344C196.135,232.346 196.251,232.398 196.335,232.487C196.419,232.577 196.462,232.696 196.456,232.818C196.419,233.536 196.349,234.901 196.313,235.597C196.301,235.837 196.101,236.026 195.86,236.025C192.691,236.014 173.004,235.943 169.695,235.931C169.572,235.93 169.455,235.88 169.37,235.79C169.285,235.701 169.24,235.581 169.246,235.458C169.283,234.668 169.357,233.086 169.393,232.319Z"
                style="fill:#bdc9eb;" />
        </g>
        <g>
            <path
                d="M344.699,239.537C350.774,240.844 354.641,246.859 353.328,252.96C352.015,259.061 346.017,262.953 339.941,261.645C333.865,260.337 329.998,254.323 331.311,248.222C332.624,242.121 338.623,238.229 344.699,239.537Z"
                style="fill:#526bc1;" />
            <path
                d="M353.834,176.823C353.834,176.823 352.539,166.214 360.638,163.914C368.737,161.615 372.55,164.681 375.289,170.66C378.028,176.64 376.365,184.367 366.764,189.487C357.163,194.608 350.908,198.657 345.691,204.266C340.37,209.987 339.742,217.359 339.742,217.359C339.742,217.359 338.206,222.419 342.505,227.387C346.804,232.354 356.997,230.12 356.997,230.12C356.997,230.12 356.196,224.045 360.205,219.967C364.214,215.889 376.438,213.129 383.197,208.745C389.955,204.36 398.008,193.965 399.613,184.429C401.218,174.893 398.716,160.592 389.406,150.791C380.289,141.193 371.554,140.212 364.621,139.169C357.689,138.126 349.832,141.376 345.58,144.504C341.329,147.631 336.396,156.002 336.385,162.288C336.374,168.574 337.184,177.282 353.834,176.823Z"
                style="fill:#526bc1;" />
        </g>
        <g>
            <path
                d="M382.119,305.177C385.894,305.989 388.297,309.726 387.481,313.517C386.665,317.308 382.938,319.726 379.163,318.914C375.387,318.101 372.985,314.364 373.801,310.573C374.616,306.782 378.344,304.364 382.119,305.177Z"
                style="fill:#526bc2;" />
            <path
                d="M406.222,272.993C406.222,272.993 398.115,269.093 398.905,264.591C399.695,260.09 406.026,252.289 415.75,253.663C425.474,255.037 429.288,261.428 430.993,264.31C432.699,267.193 435,271.23 433.471,279.165C431.942,287.101 426.733,292.458 420.811,294.998C411.744,298.886 411.003,296.47 403.674,298.137C398.317,299.356 392.092,303.73 392.092,303.73C392.092,303.73 385.154,297.843 384.602,295.419C384.051,292.994 385.482,291.44 388.782,289.183C392.978,286.313 397.512,286.031 401.422,286.154C405.332,286.277 411.21,285.565 413.609,283.566C416.007,281.567 418.503,279.948 418.132,275.017C417.762,270.087 414.98,268.051 412.452,267.327C409.923,266.603 407.465,268.05 406.222,272.993Z"
                style="fill:#526bc2;" />
        </g>
        <g>
            <path
                d="M295.329,276.878C299.989,277.881 302.955,282.494 301.948,287.173C300.941,291.853 296.34,294.837 291.68,293.835C287.02,292.832 284.054,288.218 285.061,283.539C286.068,278.86 290.669,275.875 295.329,276.878Z"
                style="fill:#526bc3;" />
            <path
                d="M269.117,233.956C269.117,233.956 265.628,237.697 259.215,236.317C252.802,234.937 247.255,227.455 251.183,217.52C255.11,207.585 260.008,201.453 270.06,200.472C280.112,199.491 294.842,203.277 301.299,216.402C305.5,224.942 304.374,231.213 300.51,239.814C297.805,245.834 294.509,247.955 293.169,254.179C291.817,260.463 292.465,263.685 293.771,268.008C294.274,268.79 283.731,271.013 283.731,271.013C283.731,271.013 281.103,271.795 278.861,269.74C276.619,267.686 275.25,264.696 275.168,258.839C275.086,252.983 278.149,246.31 281.307,241.745C282.93,239.399 285.368,234.309 285.327,231.381C285.238,224.982 281.324,221.517 277.313,219.774C274.239,218.439 267.208,219.052 265.926,223.837C264.789,228.084 269.117,233.956 269.117,233.956Z"
                style="fill:#526bc3;" />
        </g>
    </g>
</svg>